<svg xmlns="http://www.w3.org/2000/svg" version="1.1" xmlns:xlink="http://www.w3.org/1999/xlink" xmlns:svgjs="http://svgjs.dev/svgjs" width="300" height="300" viewBox="0 0 2000 2000"><g transform="matrix(1,0,0,1,-0.28443113772425477,-0.28443113772459583)"><svg viewBox="0 0 334 334" data-background-color="#ffffff" preserveAspectRatio="xMidYMid meet" height="2000" width="2000" xmlns="http://www.w3.org/2000/svg" xmlns:xlink="http://www.w3.org/1999/xlink"><g id="tight-bounds" transform="matrix(1,0,0,1,0.04749999999998522,0.04750000000001364)"><svg viewBox="0 0 333.90454557049503 333.90454557049503" height="333.90454557049503" width="333.90454557049503"><g><svg></svg></g><g><svg viewBox="0 0 333.90454557049503 333.90454557049503" height="333.90454557049503" width="333.90454557049503"><g><path d="M0 166.952c0-92.205 74.747-166.952 166.952-166.952 92.205 0 166.952 74.747 166.953 166.952 0 92.205-74.747 166.952-166.953 166.953-92.205 0-166.952-74.747-166.952-166.953zM166.952 316.63c82.665 0 149.677-67.013 149.678-149.678 0-82.665-67.013-149.677-149.678-149.677-82.665 0-149.677 67.013-149.677 149.677 0 82.665 67.013 149.677 149.677 149.678z" data-fill-palette-color="tertiary" fill="#ff0000" stroke="transparent"></path><ellipse rx="160.27418187383762" ry="160.27418187383762" cx="166.95227278524752" cy="166.95227278524752" fill="#ff0000" stroke="transparent" stroke-width="0" fill-opacity="1" data-fill-palette-color="tertiary"></ellipse></g><g transform="matrix(1,0,0,1,73.83358607760168,71.17305217166896)"><svg viewBox="0 0 186.23737341529167 191.55844122715712" height="191.55844122715712" width="186.23737341529167"><g><svg viewBox="0 0 186.23737341529167 191.55844122715712" height="191.55844122715712" width="186.23737341529167"><g><svg viewBox="0 0 186.23737341529167 191.55844122715712" height="191.55844122715712" width="186.23737341529167"><g><svg viewBox="0 0 186.23737341529167 191.55844122715712" height="191.55844122715712" width="186.23737341529167"><g id="textblocktransform"><svg viewBox="0 0 186.23737341529167 191.55844122715712" height="191.55844122715712" width="186.23737341529167" id="textblock"><g><svg viewBox="0 0 186.23737341529167 191.55844122715712" height="191.55844122715712" width="186.23737341529167"><g transform="matrix(1,0,0,1,0,0)"><svg width="186.23737341529167" viewBox="0.4 -35.5 35 36" height="191.55844122715712" data-palette-color="#ffffff"><path d="M7.2 0L7.2 0 7.2-34.4Q7.2-34.4 7.3-34.48 7.4-34.55 8-34.55L8-34.55 10.4-34.55Q11.05-34.55 11.15-34.48 11.25-34.4 11.25-34.4L11.25-34.4 11.25-0.8Q11.25-0.4 11.08-0.25 10.9-0.1 10.05-0.05 9.2 0 7.2 0ZM17.4-31.2L0.4-31.2 0.4-34.2Q0.4-35 1.25-35L1.25-35 18.25-35 18.25-32Q18.25-31.55 18.05-31.38 17.85-31.2 17.4-31.2L17.4-31.2ZM26.5 0.5L26.5 0.5Q23.05 0.5 21.47-0.48 19.9-1.45 19.9-2.5L19.9-2.5Q19.9-3.1 20.15-3.93 20.4-4.75 20.95-5.4L20.95-5.4Q21.75-4.65 23.02-4.15 24.3-3.65 26.1-3.65L26.1-3.65Q28.75-3.65 29.87-5.05 31-6.45 31-8.75L31-8.75Q31-10.45 30.37-11.9 29.75-13.35 28.1-15.25L28.1-15.25 23.1-21.1Q21.4-23.2 20.67-24.88 19.95-26.55 19.95-28.35L19.95-28.35Q19.95-31.5 22.17-33.5 24.4-35.5 28.55-35.5L28.55-35.5Q32.1-35.5 33.6-34.77 35.1-34.05 35.1-33L35.1-33Q35.1-32.5 34.85-31.88 34.6-31.25 34.1-30.7L34.1-30.7Q33.6-31.05 32.27-31.48 30.95-31.9 29.2-31.9L29.2-31.9Q26.95-31.9 25.62-31 24.3-30.1 24.3-28.45L24.3-28.45Q24.3-27.1 24.92-25.98 25.55-24.85 26.65-23.5L26.65-23.5 32.05-17.35Q34-15.05 34.7-13.15 35.4-11.25 35.4-8.9L35.4-8.9Q35.4-6.4 34.57-4.25 33.75-2.1 31.82-0.8 29.9 0.5 26.5 0.5Z" opacity="1" transform="matrix(1,0,0,1,0,0)" fill="#ffffff" class="wordmark-text-0" data-fill-palette-color="quaternary" id="text-0"></path></svg></g></svg></g></svg></g></svg></g><g></g></svg></g></svg></g></svg></g></svg></g><defs></defs></svg><rect width="333.90454557049503" height="333.90454557049503" fill="none" stroke="none" visibility="hidden"></rect></g></svg></g></svg>