<?xml version="1.0" encoding="UTF-8" standalone="no"?>
<svg version="1.1" id="Layer_1" xmlns="http://www.w3.org/2000/svg" xmlns:xlink="http://www.w3.org/1999/xlink" x="0px" y="0px"
	 width="308.7612359841165" height="304.915625" viewBox="0 0 500 500"  xml:space="preserve">  <path fill="#000000" opacity="1.000000" stroke="none" d="M263,501C176.67,501,90.83,500.97,5,501.1C1.58,501.1,0.9,500.42,0.91,497C1.01,333,1.01,169,0.91,5C0.9,1.58,1.58,0.9,5,0.91C169,1.01,333,1.01,497,0.91C500.42,0.9,501.1,1.58,501.09,5C501,169,501,333,501.09,497C501.1,500.42,500.43,501.1,497,501.1C419.17,500.97,341.33,501,263,501z"/>
<path fill="#010000" opacity="1.000000" stroke="none" 
	d="
M245.860931,394.187073 
	C245.463226,393.944672 245.159576,393.953033 245.159576,393.953033 
	C245.159576,393.953033 244.855804,393.952545 244.703995,393.947876 
	C237.656769,395.144653 230.851837,393.976166 224.129883,392.785858 
	C194.103485,387.468903 167.257126,375.227570 144.554626,354.718109 
	C120.856995,333.309662 104.868080,307.135376 96.442490,276.169525 
	C91.596153,258.358215 90.170479,240.224030 91.678856,222.184433 
	C93.974617,194.728043 103.016647,169.334213 118.876366,146.371689 
	C135.467316,122.350464 156.617218,104.014008 182.941956,91.550766 
	C197.271973,84.766327 212.291336,80.249405 228.429123,77.943024 
	C235.838623,75.870087 243.012665,76.961349 250.063141,76.737068 
	C268.724823,76.143410 286.920715,79.343048 304.361633,85.917526 
	C357.578461,105.977982 390.974121,144.188919 405.601807,198.742004 
	C410.440704,216.788513 410.581299,235.436127 408.613617,254.097198 
	C405.959167,279.271301 397.465271,302.309174 383.519897,323.234436 
	C362.178284,355.257782 333.200439,377.300720 296.079620,388.233398 
	C291.794159,389.495514 287.402252,390.347839 282.618164,391.517761 
	C272.156982,394.309540 261.837524,394.244751 251.609009,394.965424 
	C249.832809,395.090546 247.969727,395.307068 245.860931,394.187073 
z"/>
<path fill="#C82626" opacity="1.000000" stroke="none" 
	d="
M282.594116,391.181580 
	C306.990326,384.940033 329.310608,375.307678 348.563904,359.475372 
	C390.630493,324.883392 410.890289,280.303680 408.066803,225.832275 
	C404.326385,153.669937 349.357666,91.147919 274.619965,79.503365 
	C259.739868,77.184959 244.781067,77.183723 229.413528,79.014328 
	C228.706833,78.734100 228.385300,78.539932 227.832520,78.200775 
	C227.635635,77.804337 227.633224,77.614967 227.815887,77.210075 
	C229.763535,76.692642 231.526123,76.390724 233.674103,76.130104 
	C234.832153,76.024109 235.612122,75.995926 236.688629,76.043747 
	C245.691833,74.973007 254.412369,75.179672 263.578674,75.954163 
	C264.805481,76.010086 265.589966,75.989609 266.664246,76.123230 
	C268.734924,76.349449 270.514771,76.529114 272.648407,76.857170 
	C273.438782,77.006927 273.874634,77.025345 274.633301,77.112015 
	C306.149841,81.719032 333.568970,94.616615 356.852905,115.676193 
	C395.107147,150.275894 413.463959,193.729599 410.721497,245.203949 
	C406.876526,317.370483 354.880219,377.205933 283.335999,392.800995 
	C282.716492,392.464386 282.521729,392.101471 282.594116,391.181580 
z"/>
<path fill="#C72626" opacity="1.000000" stroke="none" 
	d="
M227.607941,77.617950 
	C228.123444,78.080605 228.376846,78.334335 228.813354,78.785110 
	C197.596313,83.829300 169.501968,96.073196 145.902283,117.486732 
	C108.511635,151.413712 90.134178,193.847198 92.964584,244.325516 
	C97.177574,319.461060 151.168320,379.021545 225.321030,391.691650 
	C231.379883,392.726868 237.558487,393.061188 244.116821,393.832214 
	C244.931335,397.548920 242.143631,395.901825 240.900330,395.839447 
	C233.804062,395.483429 226.729233,394.793030 219.383728,393.094727 
	C218.250259,392.975739 217.589752,392.723724 216.626587,392.243774 
	C201.283615,389.820770 187.358963,384.276520 174.297394,376.885010 
	C127.210403,350.238403 99.235672,310.111298 91.321236,256.501282 
	C82.114182,194.135529 114.508003,128.687668 169.692474,97.021500 
	C184.981567,88.248253 201.144211,81.873390 218.825470,78.442917 
	C220.091141,79.067749 220.659195,78.074936 221.717484,78.017410 
	C223.086823,77.710304 224.153915,77.421982 225.638382,77.147339 
	C226.509674,77.119499 226.938522,77.208305 227.607941,77.617950 
z"/>
<path fill="#C72626" opacity="1.000000" stroke="none" 
	d="
M282.437439,390.635803 
	C282.869720,390.991669 282.878143,391.358765 282.898926,392.276581 
	C271.665833,395.498169 260.229584,396.192535 248.721771,396.069916 
	C247.322250,396.055023 245.636185,396.572571 245.121780,394.356842 
	C257.716034,393.614227 269.949432,393.068451 282.437439,390.635803 
z"/>
<path fill="#BC2424" opacity="1.000000" stroke="none" 
	d="
M236.740570,76.001396 
	C236.213150,76.536583 235.403519,76.698860 234.295227,76.276749 
	C234.872894,76.095161 235.686279,76.018921 236.740570,76.001396 
z"/>
<path fill="#BC2424" opacity="1.000000" stroke="none" 
	d="
M266.724121,76.076614 
	C266.128204,76.215027 265.301331,76.260262 264.247620,76.179840 
	C264.844910,76.030602 265.669037,76.007027 266.724121,76.076614 
z"/>
<path fill="#C22525" opacity="1.000000" stroke="none" 
	d="
M216.454803,392.337524 
	C216.967941,392.332214 217.657684,392.506378 218.669250,392.829285 
	C218.204529,392.824402 217.417984,392.670715 216.454803,392.337524 
z"/>
<path fill="#BC2424" opacity="1.000000" stroke="none" 
	d="
M227.908264,77.619659 
	C227.407928,77.684418 226.945831,77.541969 226.269745,77.280273 
	C226.575424,77.066048 227.095093,76.971069 227.807861,76.935326 
	C228.000961,76.994568 227.946518,77.412453 227.908264,77.619659 
z"/>
<path fill="#BC2424" opacity="1.000000" stroke="none" 
	d="
M274.779510,77.063690 
	C274.424133,77.180618 273.891235,77.200615 273.180267,77.113098 
	C273.535461,76.992630 274.068726,76.979698 274.779510,77.063690 
z"/>
<path fill="#BC2424" opacity="1.000000" stroke="none" 
	d="
M221.731079,77.953781 
	C221.280502,78.179352 220.541260,78.360054 219.505920,78.505737 
	C219.954041,78.283455 220.698227,78.096191 221.731079,77.953781 
z"/>
<path fill="#DC2A2A" opacity="1.000000" stroke="none" 
	d="
M171.091705,303.299286 
	C174.976440,300.444580 175.523300,296.465057 176.056229,292.487732 
	C177.142639,284.379883 177.085999,276.215179 176.828979,268.080200 
	C176.696854,263.898132 178.971390,264.004333 181.815323,264.140686 
	C184.498138,264.269257 187.465561,263.246979 187.345383,268.026672 
	C187.149231,275.827606 187.534409,283.647064 187.799316,291.454468 
	C188.015427,297.824036 189.044891,303.785980 196.706772,305.743225 
	C186.723587,305.743225 176.740402,305.743225 166.757202,305.743225 
	C166.681366,305.539520 166.605515,305.335815 166.529663,305.132141 
	C167.941849,304.586548 169.354050,304.040985 171.091705,303.299286 
z"/>
<path fill="#D62929" opacity="1.000000" stroke="none" 
	d="
M307.218689,182.645782 
	C300.983124,184.351944 295.240631,186.386108 290.293823,190.326492 
	C279.209076,199.156036 274.452911,218.283478 293.061554,228.161484 
	C294.164551,228.746994 295.175018,229.506851 297.254639,230.846619 
	C291.093842,230.846619 286.162781,230.819260 281.232239,230.858398 
	C278.849701,230.877304 277.761505,229.158875 276.586853,227.564102 
	C268.947693,217.192551 270.656128,202.202682 280.625916,192.598969 
	C287.759033,185.727753 296.643890,182.750275 306.594635,181.372299 
	C307.344208,181.647888 307.496399,181.994324 307.218689,182.645782 
z"/>
<path fill="#E02B2B" opacity="1.000000" stroke="none" 
	d="
M187.305481,184.921555 
	C187.159393,199.014297 186.998230,212.782211 187.340652,226.537582 
	C187.461746,231.401413 184.714844,230.686951 181.684402,230.904510 
	C178.098831,231.161926 176.766479,230.177750 176.836868,226.291794 
	C177.080032,212.863419 176.934708,199.427994 176.953094,185.531006 
	C176.622803,184.709137 176.481720,184.283539 176.792633,183.533676 
	C180.048096,183.236893 183.056442,183.196426 186.511902,183.216644 
	C187.389496,183.613159 187.566086,184.051315 187.305481,184.921555 
z"/>
<path fill="#D72929" opacity="1.000000" stroke="none" 
	d="
M320.210449,307.622070 
	C303.018585,310.204102 288.292877,304.587189 274.653748,295.125031 
	C273.576416,294.377655 272.308350,293.667023 272.321625,292.114807 
	C272.363434,287.224579 271.790588,282.303009 272.828369,276.423828 
	C284.524902,293.196838 297.998199,305.794922 319.528015,306.192444 
	C320.338226,306.532990 320.509094,306.907135 320.210449,307.622070 
z"/>
<path fill="#D62929" opacity="1.000000" stroke="none" 
	d="
M332.716736,304.089905 
	C339.233856,300.312683 345.348816,295.902557 348.776794,288.602936 
	C352.154480,281.410370 351.663940,277.261261 346.107971,264.648865 
	C346.210815,264.543610 346.307526,264.361664 346.422638,264.349152 
	C356.633484,263.239594 358.326111,264.673370 357.997528,274.937958 
	C357.621643,286.680817 350.978943,294.618347 341.613617,300.687836 
	C339.542267,302.030212 337.201447,302.956726 334.635315,304.146637 
	C333.916229,304.283966 333.546478,304.349396 332.716736,304.089905 
z"/>
<path fill="#D12828" opacity="1.000000" stroke="none" 
	d="
M307.464783,182.881104 
	C306.990448,182.533859 306.985931,182.207718 306.983582,181.636932 
	C320.913910,179.819092 334.544250,181.271408 347.895721,185.465866 
	C349.259369,185.894272 350.933929,186.042679 350.919861,188.143707 
	C350.888184,192.866257 350.909882,197.589188 350.389374,202.574677 
	C340.674774,185.828003 326.114410,180.420502 307.464783,182.881104 
z"/>
<path fill="#C62626" opacity="1.000000" stroke="none" 
	d="
M176.575592,183.190674 
	C177.042374,183.676025 177.044998,184.074722 177.008255,184.770081 
	C167.324661,184.171280 158.078140,185.842865 149.209106,189.586716 
	C144.954956,191.382523 141.440063,194.101654 139.740234,200.337479 
	C138.582016,194.175781 139.007339,189.484772 139.196518,184.849564 
	C139.297501,182.375488 141.642227,183.087311 143.148041,183.081802 
	C154.135681,183.041580 165.123611,183.086182 176.575592,183.190674 
z"/>
<path fill="#DC2A2A" opacity="1.000000" stroke="none" 
	d="
M196.794174,183.499405 
	C205.162613,183.217545 213.294189,183.264740 221.419479,183.061066 
	C224.299286,182.988876 225.186707,184.029907 225.056122,186.799881 
	C224.870178,190.744537 225.008835,194.704498 225.008835,199.531616 
	C218.955627,187.782120 208.082748,186.998901 197.411713,184.954346 
	C196.652420,184.576111 196.498184,184.195602 196.794174,183.499405 
z"/>
<path fill="#651313" opacity="1.000000" stroke="none" 
	d="
M251.654160,307.739075 
	C251.872253,320.474030 251.872253,333.005188 251.872253,345.536346 
	C251.306595,345.549622 250.740936,345.562897 250.175278,345.576172 
	C250.175278,333.319550 250.175278,321.062958 250.273300,308.338470 
	C250.667480,307.572235 251.022385,307.460449 251.654160,307.739075 
z"/>
<path fill="#911C1C" opacity="1.000000" stroke="none" 
	d="
M251.905060,307.479004 
	C251.538940,307.920685 251.205643,307.898529 250.621826,307.873474 
	C250.473389,293.849701 250.575455,279.828827 250.767517,265.339722 
	C251.050644,264.787262 251.243759,264.703033 251.668762,264.833557 
	C251.913025,279.037231 251.925446,293.026154 251.905060,307.479004 
z"/>
<path fill="#B02222" opacity="1.000000" stroke="none" 
	d="
M300.791504,241.592926 
	C302.665863,245.701584 304.366913,249.514145 306.067993,253.326721 
	C301.286835,249.230698 297.547302,249.247574 292.727356,253.242081 
	C294.549835,249.299088 296.321503,245.331284 298.226654,241.428650 
	C298.779785,240.295578 299.765106,240.391220 300.791504,241.592926 
z"/>
<path fill="#B02222" opacity="1.000000" stroke="none" 
	d="
M369.121948,248.766434 
	C369.727509,250.582977 371.094696,251.814850 370.547302,253.690048 
	C366.322723,249.233383 362.525330,249.239639 357.800415,253.288269 
	C359.514404,249.481262 361.141876,245.631927 362.975800,241.883606 
	C364.022858,239.743576 365.200745,240.383392 366.057343,242.149536 
	C367.064178,244.225388 368.014191,246.328766 369.121948,248.766434 
z"/>
<path fill="#981D1D" opacity="1.000000" stroke="none" 
	d="
M315.309784,241.408966 
	C317.771027,239.255661 320.519257,239.932709 323.059540,240.995361 
	C325.525360,242.026840 326.656036,244.473999 325.233490,246.663956 
	C323.643860,249.111115 323.313507,251.119766 325.002838,253.739319 
	C322.306610,252.288727 320.768585,248.739929 316.717194,250.270401 
	C315.811737,250.253143 315.521820,249.960571 315.516846,249.056732 
	C314.939453,246.689392 320.332764,245.995453 316.432007,243.100464 
	C315.874084,242.530640 315.635101,242.142563 315.309784,241.408966 
z"/>
<path fill="#BC2424" opacity="1.000000" stroke="none" 
	d="
M251.653885,177.655579 
	C251.834412,195.155563 251.834412,212.335251 251.834412,229.514938 
	C251.540314,229.515015 251.246216,229.515076 250.952118,229.515152 
	C250.952118,212.645798 250.952118,195.776443 251.036407,178.443817 
	C251.238251,177.765442 251.355804,177.550354 251.653885,177.655579 
z"/>
<path fill="#B02222" opacity="1.000000" stroke="none" 
	d="
M256.577454,246.378769 
	C258.412689,246.485855 259.910339,246.712616 261.256958,247.290970 
	C263.181763,248.117661 264.157745,249.777115 263.127594,251.707458 
	C262.218567,253.410828 260.952454,255.169769 258.582550,252.916809 
	C257.964752,252.329514 256.461121,252.674057 255.970657,252.636734 
	C257.718842,253.445984 260.434937,253.642929 261.317261,251.084091 
	C262.257996,248.355804 259.155762,248.515244 257.221313,247.525299 
	C256.670166,247.079742 256.421265,246.867615 256.577454,246.378769 
z"/>
<path fill="#D62929" opacity="1.000000" stroke="none" 
	d="
M251.893463,177.512009 
	C251.834412,177.975876 251.477539,177.975571 251.299118,177.978058 
	C251.120697,165.751144 251.120697,153.521759 251.120697,141.292374 
	C251.397964,141.292206 251.675247,141.292038 251.952515,141.291870 
	C251.952515,153.210632 251.952515,165.129379 251.893463,177.512009 
z"/>
<path fill="#B12222" opacity="1.000000" stroke="none" 
	d="
M159.518814,252.286102 
	C155.980621,255.043228 152.357193,254.916718 149.504456,251.491028 
	C146.931152,248.400894 147.335739,245.076004 150.848480,242.107483 
	C151.936066,242.328674 152.419846,242.720123 152.416794,243.164505 
	C152.387146,247.485443 155.010559,249.564117 158.909668,251.054962 
	C159.192017,251.551025 159.274765,251.765869 159.518814,252.286102 
z"/>
<path fill="#B12222" opacity="1.000000" stroke="none" 
	d="
M151.071167,242.063263 
	C154.067703,239.284134 157.334351,239.707581 160.129761,242.278030 
	C162.878937,244.805969 162.936035,247.993576 160.802887,251.444763 
	C160.367065,251.601456 160.159760,251.503677 159.649673,251.240417 
	C157.304810,248.160538 156.080170,244.502792 151.983459,242.984589 
	C151.595108,242.581482 151.445389,242.433441 151.071167,242.063263 
z"/>
<path fill="#B12222" opacity="1.000000" stroke="none" 
	d="
M178.035553,251.315460 
	C178.683243,249.374008 176.804535,248.924393 176.530258,247.314163 
	C178.456223,247.160660 179.675522,247.827560 180.087692,249.693710 
	C180.446701,251.319244 179.893036,252.731491 178.365692,253.406952 
	C175.736893,254.569550 173.168610,254.592789 169.749954,251.949524 
	C173.283630,252.066818 175.745087,253.792419 178.035553,251.315460 
z"/>
<path fill="#A21F1F" opacity="1.000000" stroke="none" 
	d="
M178.092896,241.722778 
	C175.110519,242.260742 170.259872,240.898193 173.526550,246.783112 
	C171.371460,247.346085 170.761017,245.906342 170.520905,244.406509 
	C170.257904,242.763748 171.088104,241.433945 172.645340,240.839691 
	C174.630783,240.082031 176.753357,239.111176 178.092896,241.722778 
z"/>
<path fill="#A21F1F" opacity="1.000000" stroke="none" 
	d="
M213.096161,245.347809 
	C213.096329,248.362900 213.096329,250.944687 213.096329,253.526459 
	C212.651260,253.534866 212.206192,253.543259 211.761108,253.551666 
	C210.657288,249.446213 211.098724,245.285248 211.595337,239.640121 
	C213.400269,242.142303 212.965622,243.598267 213.096161,245.347809 
z"/>
<path fill="#D62929" opacity="1.000000" stroke="none" 
	d="
M133.891998,240.631058 
	C134.540131,240.432678 134.907623,240.411240 135.549774,240.421967 
	C136.276031,240.680176 136.495605,241.045593 136.301041,241.851959 
	C136.118896,245.863434 136.118896,249.573380 136.118896,253.283340 
	C135.556091,253.295334 134.993271,253.307343 134.430466,253.319351 
	C134.430466,249.805405 134.430466,246.291443 134.236542,242.354156 
	C133.663803,241.646820 133.508698,241.276917 133.891998,240.631058 
z"/>
<path fill="#DC2A2A" opacity="1.000000" stroke="none" 
	d="
M282.609711,246.207458 
	C283.192963,244.292847 282.405334,242.594406 283.816071,240.581573 
	C284.429901,245.236847 284.382263,249.316132 283.867218,253.879257 
	C282.478912,252.343063 283.102600,251.015121 282.929199,249.437469 
	C282.514038,248.285690 282.097046,247.515259 282.609711,246.207458 
z"/>
<path fill="#D72929" opacity="1.000000" stroke="none" 
	d="
M225.797852,249.180756 
	C225.409470,250.976761 225.056244,252.213058 224.703018,253.449341 
	C224.534912,253.455261 224.366791,253.461197 224.198669,253.467133 
	C224.198669,249.441513 224.198669,245.415878 224.198669,241.390259 
	C224.505188,241.345108 224.811691,241.299957 225.118210,241.254822 
	C225.118210,243.160645 225.118210,245.066483 225.119385,247.363495 
	C225.358047,248.043442 225.595520,248.332230 225.797852,249.180756 
z"/>
<path fill="#DC2A2A" opacity="1.000000" stroke="none" 
	d="
M191.269791,248.674103 
	C191.071533,250.526718 191.071533,251.989746 191.071533,253.452759 
	C189.522934,249.419525 189.681717,245.348709 190.827774,241.176285 
	C190.924561,242.487991 191.021362,243.799683 191.152405,245.465530 
	C191.725830,246.590439 191.884415,247.404648 191.269791,248.674103 
z"/>
<path fill="#C62626" opacity="1.000000" stroke="none" 
	d="
M196.582367,183.185150 
	C197.030991,183.625183 197.028458,183.981140 197.021729,184.604126 
	C194.001923,184.893753 190.986313,184.916336 187.546417,185.095123 
	C187.069672,184.813828 187.017166,184.376328 186.961853,183.608078 
	C190.016418,183.218597 193.073822,183.159851 196.582367,183.185150 
z"/>
<path fill="#B12222" opacity="1.000000" stroke="none" 
	d="
M226.071609,249.515137 
	C225.653244,249.410294 225.543793,249.080093 225.277466,248.252289 
	C226.317749,246.936127 227.514923,246.117599 228.932114,245.148621 
	C229.456558,247.932648 232.011642,249.333405 233.002029,251.999573 
	C229.978333,252.670425 229.821945,246.862350 226.071609,249.515137 
z"/>
<path fill="#D62929" opacity="1.000000" stroke="none" 
	d="
M345.791199,244.379517 
	C346.431854,242.764359 346.887787,241.564087 348.628113,240.815643 
	C349.327972,245.134781 349.092102,249.140396 348.710510,254.069260 
	C347.150330,250.950134 347.911377,248.491272 347.750610,245.725159 
	C347.724792,245.100052 347.662140,244.896194 347.283112,244.739929 
	C346.823822,244.917023 346.680847,245.046478 346.322083,245.368713 
	C345.940979,245.306824 345.775574,245.052155 345.791199,244.379517 
z"/>
<path fill="#D62929" opacity="1.000000" stroke="none" 
	d="
M336.264374,245.069016 
	C336.145111,247.901871 336.145111,250.499329 336.145111,253.096771 
	C335.749573,253.097229 335.354065,253.097702 334.958527,253.098160 
	C334.958527,249.931870 334.926300,246.765030 334.979034,243.599609 
	C334.994049,242.698761 334.575104,241.292099 335.922485,241.180435 
	C337.000824,241.091064 337.226379,242.510925 337.895630,243.650635 
	C338.132843,244.272888 338.272461,244.533386 338.141266,245.144867 
	C337.645569,245.330887 337.420746,245.165909 336.919189,244.687286 
	C336.556152,244.526962 336.469879,244.680283 336.264374,245.069016 
z"/>
<path fill="#DC2A2A" opacity="1.000000" stroke="none" 
	d="
M273.782562,240.794189 
	C274.193695,242.471939 274.347870,243.984222 274.691101,245.830124 
	C275.308167,246.469254 275.498474,246.883865 275.220551,247.697479 
	C273.674225,249.495255 274.976532,251.587616 272.999451,254.347290 
	C272.999451,249.461624 272.999451,245.725464 273.058685,241.536774 
	C273.253845,240.932373 273.389740,240.780548 273.782562,240.794189 
z"/>
<path fill="#7E1818" opacity="1.000000" stroke="none" 
	d="
M191.373352,248.800415 
	C191.097702,248.253464 191.123871,247.443207 191.168335,246.226318 
	C193.717422,245.828751 196.248199,245.837845 199.193512,245.779984 
	C200.958008,246.247223 200.050446,246.910751 199.364273,247.762329 
	C196.568878,248.167709 194.122009,248.352417 191.373352,248.800415 
z"/>
<path fill="#7E1818" opacity="1.000000" stroke="none" 
	d="
M275.406860,248.034714 
	C274.947662,247.582870 274.905273,247.178360 274.871490,246.468811 
	C277.237305,246.083069 279.594482,246.002396 282.387817,245.874756 
	C282.880951,246.634064 282.937958,247.440323 282.967163,248.650421 
	C280.755463,247.354309 278.185577,248.479172 275.406860,248.034714 
z"/>
<path fill="#DC2A2A" opacity="1.000000" stroke="none" 
	d="
M199.249863,248.274414 
	C199.201004,247.422775 199.386276,246.862549 199.589813,246.007675 
	C199.655624,244.386871 199.703186,243.060715 199.859024,241.350647 
	C200.136414,240.854080 200.305542,240.741440 200.674744,240.858734 
	C200.874832,245.129578 200.874832,249.170456 200.874832,253.660736 
	C199.006958,252.015396 200.063980,250.070023 199.249863,248.274414 
z"/>
<path fill="#E02B2B" opacity="1.000000" stroke="none" 
	d="
M315.092529,241.545502 
	C315.437500,241.356873 315.706055,241.617233 316.149414,242.099487 
	C317.814545,243.727585 318.479370,245.240417 316.617950,247.365082 
	C316.306152,248.278732 316.309967,248.866074 316.326294,249.894089 
	C316.257965,251.304031 316.177124,252.273300 316.096252,253.242584 
	C314.468384,249.575928 315.181183,245.749908 315.092529,241.545502 
z"/>
<path fill="#981D1D" opacity="1.000000" stroke="none" 
	d="
M256.511108,240.998138 
	C258.903687,239.384674 260.616089,240.367722 262.833282,241.313950 
	C260.971191,242.819672 259.210846,241.619934 257.317108,241.923004 
	C256.668762,241.697021 256.375183,241.501801 256.511108,240.998138 
z"/>
<path fill="#BC2424" opacity="1.000000" stroke="none" 
	d="
M320.373383,307.908813 
	C319.970764,307.503326 319.964020,307.144073 319.959656,306.515350 
	C322.004181,305.958160 324.046295,305.670410 326.524963,305.309875 
	C327.093384,305.494873 327.225281,305.752625 327.158203,306.396484 
	C324.895905,307.173431 322.832581,307.564240 320.373383,307.908813 
z"/>
<path fill="#A21F1F" opacity="1.000000" stroke="none" 
	d="
M327.318115,306.750305 
	C326.955200,306.525024 326.951172,306.267456 326.954285,305.623474 
	C328.520172,304.759460 330.078857,304.281830 331.947113,303.784607 
	C332.595886,303.836090 332.935120,303.907196 333.780151,304.098389 
	C332.354584,305.769928 329.902588,305.944641 327.318115,306.750305 
z"/>
<path fill="#981D1D" opacity="1.000000" stroke="none" 
	d="
M345.712097,244.151901 
	C346.014221,244.226532 346.056244,244.491547 346.102325,245.159012 
	C345.386475,246.996796 344.666626,248.432129 343.728851,250.083511 
	C343.187012,250.322968 342.863098,250.346344 342.615601,249.888611 
	C343.612030,247.719086 344.531982,246.030685 345.712097,244.151901 
z"/>
<path fill="#B02222" opacity="1.000000" stroke="none" 
	d="
M337.911682,245.803986 
	C337.875549,245.247330 337.880676,244.998810 337.939514,244.381348 
	C339.051727,245.655411 340.110199,247.298431 341.264465,249.257950 
	C341.381042,249.853012 341.401855,250.131577 341.004700,250.380432 
	C339.708801,248.937820 338.830902,247.524963 337.911682,245.803986 
z"/>
<path fill="#911C1C" opacity="1.000000" stroke="none" 
	d="
M136.482086,242.114120 
	C136.041122,241.777802 135.963348,241.402130 135.855011,240.740295 
	C137.323105,240.159546 138.865540,239.556274 140.209274,241.015244 
	C139.394211,242.601837 137.944626,241.774094 136.482086,242.114120 
z"/>
<path fill="#911C1C" opacity="1.000000" stroke="none" 
	d="
M133.815186,240.338028 
	C134.251160,240.786026 134.242416,241.115646 134.094513,241.686890 
	C132.846436,241.789886 130.882401,242.697861 130.691238,241.144608 
	C130.514679,239.709778 132.403275,240.293152 133.815186,240.338028 
z"/>
<path fill="#B02222" opacity="1.000000" stroke="none" 
	d="
M343.302734,250.079742 
	C342.858124,251.503403 342.276123,252.994598 340.706177,250.656006 
	C340.715698,250.221344 340.844666,250.092010 341.166931,249.768555 
	C341.649231,249.491104 341.944061,249.445084 342.468384,249.421906 
	C342.826233,249.558289 342.960388,249.709106 343.302734,250.079742 
z"/>
<path fill="#C82626" opacity="1.000000" stroke="none" 
	d="
M255.809082,242.179779 
	C255.591049,243.402908 255.543793,244.099899 255.594620,245.048889 
	C255.770172,245.653610 255.847641,246.006317 255.392471,246.260498 
	C253.428406,245.049805 253.724518,243.690018 254.601257,242.086548 
	C255.258438,241.806931 255.619156,241.730286 255.809082,242.179779 
z"/>
<path fill="#C82626" opacity="1.000000" stroke="none" 
	d="
M256.764832,245.972046 
	C256.970306,246.300278 256.958099,246.498489 256.932495,246.994278 
	C256.340729,247.091202 255.762405,246.890533 255.021942,246.425903 
	C254.995865,246.016251 255.131882,245.870529 255.480316,245.512848 
	C255.977539,245.481277 256.262360,245.661652 256.764832,245.972046 
z"/>
<path fill="#B12222" opacity="1.000000" stroke="none" 
	d="
M232.789368,242.139832 
	C232.161545,243.105240 231.805984,244.153412 230.941742,243.633469 
	C230.077850,243.113708 231.158920,242.698624 231.587250,242.041077 
	C232.220779,241.789963 232.557678,241.710739 232.789368,242.139832 
z"/>
<path fill="#C82626" opacity="1.000000" stroke="none" 
	d="
M256.633545,240.746979 
	C256.941956,240.890106 256.943237,241.090576 256.953430,241.591614 
	C256.660797,242.062119 256.359222,242.232040 255.847992,242.553940 
	C255.512314,242.571167 255.386307,242.436432 255.079010,242.092621 
	C255.373947,241.523819 255.850189,241.164062 256.633545,240.746979 
z"/>
<path fill="#B12222" opacity="1.000000" stroke="none" 
	d="
M234.045715,253.477905 
	C233.124649,253.609756 232.813873,253.265610 233.249847,252.536972 
	C233.575226,252.765747 233.900620,252.994522 234.045715,253.477905 
z"/>
<path fill="#B12222" opacity="1.000000" stroke="none" 
	d="
M232.083328,242.064636 
	C232.176437,241.240265 232.602859,240.800018 233.325562,241.148438 
	C233.408493,241.188416 233.177582,241.879379 232.888184,242.458344 
	C232.550369,242.518814 232.416580,242.389420 232.083328,242.064636 
z"/>
<path fill="#7E1818" opacity="1.000000" stroke="none" 
	d="
M273.963989,240.764786 
	C274.039520,240.959671 273.579956,241.030884 273.348938,241.057556 
	C273.177277,240.616867 273.294525,240.236267 273.963989,240.764786 
z"/>
<path fill="#651313" opacity="1.000000" stroke="none" 
	d="
M251.844940,264.854492 
	C251.726944,265.019562 251.553268,264.990875 251.118561,264.916809 
	C251.093735,264.472473 251.366730,264.236053 251.844940,264.854492 
z"/>
<path fill="#7E1818" opacity="1.000000" stroke="none" 
	d="
M200.844757,240.881989 
	C200.874832,241.088699 200.419968,241.035934 200.193634,241.001328 
	C200.122284,240.498962 200.332596,240.192017 200.844757,240.881989 
z"/>
<path fill="#981D1D" opacity="1.000000" stroke="none" 
	d="
M347.158203,244.938416 
	C347.315094,244.416077 347.610077,244.402313 347.806946,245.109833 
	C347.787415,245.303925 347.349670,245.089279 347.158203,244.938416 
z"/>
<path fill="#B12222" opacity="1.000000" stroke="none" 
	d="
M160.364716,251.462219 
	C160.425522,251.943375 160.242508,252.158417 159.852722,252.467926 
	C159.525772,252.448410 159.371414,252.305344 158.988739,251.944244 
	C158.753632,251.349625 158.897598,251.044022 159.460297,250.783691 
	C159.870529,250.913696 160.012802,251.069458 160.364716,251.462219 
z"/>
<path fill="#B02222" opacity="1.000000" stroke="none" 
	d="
M336.289856,245.082642 
	C336.076141,244.973007 336.163452,244.691833 336.524780,244.417267 
	C336.573151,244.536057 336.503876,244.698456 336.289856,245.082642 
z"/>
<path fill="#080202" opacity="1.000000" stroke="none" 
	d="
M298.037872,245.411072 
	C298.725128,244.583481 298.785004,242.677719 300.015137,244.083130 
	C300.941711,245.141739 301.313202,246.686172 301.573547,248.464905 
	C300.367126,247.454437 295.610413,252.286102 298.037872,245.411072 
z"/>
<path fill="#080202" opacity="1.000000" stroke="none" 
	d="
M364.755493,243.670044 
	C365.686798,245.386215 366.363007,246.855560 367.043518,248.334259 
	C365.248901,249.221893 363.075287,249.549866 362.557465,248.514709 
	C361.626862,246.654388 363.066559,244.849930 364.755493,243.670044 
z"/>
<path fill="#080202" opacity="1.000000" stroke="none" 
	d="
M316.697449,247.794647 
	C316.306580,246.156937 316.310791,244.622513 316.319611,242.704742 
	C316.644714,242.263885 316.964874,242.158661 317.285797,242.156403 
	C319.930267,242.137726 323.730469,241.105652 323.607544,245.179626 
	C323.486115,249.203369 319.731445,247.993347 316.697449,247.794647 
z"/>
<path fill="#080202" opacity="1.000000" stroke="none" 
	d="
M159.814941,250.412277 
	C159.413116,250.852310 159.159058,251.032715 158.863251,251.512695 
	C156.050507,252.827316 153.296661,253.420898 151.113037,250.862976 
	C149.021912,248.413422 149.280319,245.781509 151.485077,243.005310 
	C158.671829,240.884888 161.491928,243.421570 159.814941,250.412277 
z"/>
</svg>